<svg width="43" height="43" viewBox="0 0 43 43" fill="none" xmlns="http://www.w3.org/2000/svg">
<g clip-path="url(#clip0_2028_158)">
<path d="M32.9219 0H10.0781C4.51213 0 0 4.51213 0 10.0781V32.9219C0 38.4879 4.51213 43 10.0781 43H32.9219C38.4879 43 43 38.4879 43 32.9219V10.0781C43 4.51213 38.4879 0 32.9219 0Z" fill="white"/>
<path d="M32.9219 0H10.0781C4.51213 0 0 4.51213 0 10.0781V32.9219C0 38.4879 4.51213 43 10.0781 43H32.9219C38.4879 43 43 38.4879 43 32.9219V10.0781C43 4.51213 38.4879 0 32.9219 0Z" fill="#0A66C2"/>
<path d="M31.0263 36.5643H35.9428C36.121 36.5643 36.2918 36.4935 36.4178 36.3675C36.5438 36.2416 36.6146 36.0707 36.6147 35.8926L36.6172 25.505C36.6172 20.0758 35.4473 15.9026 29.1026 15.9026C26.6907 15.8129 24.4163 17.0562 23.1889 19.1323C23.1829 19.1424 23.1738 19.1502 23.1629 19.1546C23.152 19.1591 23.14 19.1598 23.1287 19.1567C23.1174 19.1536 23.1074 19.147 23.1002 19.1377C23.093 19.1284 23.0891 19.117 23.089 19.1053V17.0757C23.089 16.8975 23.0182 16.7266 22.8922 16.6006C22.7662 16.4746 22.5953 16.4038 22.4171 16.4038H17.7514C17.5732 16.4038 17.4024 16.4746 17.2764 16.6006C17.1504 16.7266 17.0796 16.8975 17.0796 17.0757V35.8916C17.0796 36.0698 17.1504 36.2406 17.2764 36.3666C17.4024 36.4927 17.5732 36.5634 17.7514 36.5634H22.6676C22.8457 36.5634 23.0166 36.4927 23.1426 36.3666C23.2686 36.2406 23.3394 36.0698 23.3394 35.8916V26.5906C23.3394 23.9607 23.8383 21.4138 27.0987 21.4138C30.3128 21.4138 30.3545 24.4232 30.3545 26.7609V35.8924C30.3545 36.0706 30.4253 36.2415 30.5513 36.3675C30.6773 36.4935 30.8482 36.5643 31.0263 36.5643ZM6.38281 10.0156C6.38281 12.0084 8.02336 13.6481 10.0163 13.6481C12.0088 13.648 13.6483 12.0072 13.6483 10.0148C13.648 8.02236 12.0083 6.38281 10.0156 6.38281C8.02252 6.38281 6.38281 8.02286 6.38281 10.0156ZM7.55171 36.5643H12.4744C12.6526 36.5643 12.8235 36.4935 12.9495 36.3675C13.0755 36.2415 13.1462 36.0706 13.1462 35.8924V17.0757C13.1462 16.8975 13.0755 16.7266 12.9495 16.6006C12.8235 16.4746 12.6526 16.4038 12.4744 16.4038H7.55171C7.37351 16.4038 7.20262 16.4746 7.07662 16.6006C6.95062 16.7266 6.87983 16.8975 6.87983 17.0757V35.8924C6.87983 36.0706 6.95062 36.2415 7.07662 36.3675C7.20262 36.4935 7.37351 36.5643 7.55171 36.5643Z" fill="white"/>
</g>
<defs>
<clipPath id="clip0_2028_158">
<rect width="43" height="43" fill="white"/>
</clipPath>
</defs>
</svg>
